# xmcd
#
# Track frame offsets:
#	150
#	31490
#	56860
#	85375
#	125577
#	144572
#	175670
#	202947
#	225585
#	256157
#
# Disc length: 3833 seconds
#
# Revision: 1
# Processed by: cddbd v1.5.1PL0 Copyright (c) Steve Scherf et al.
# Submitted via: CDex 1.50Beta5
#
DISCID=860ef70a
DTITLE=NIGHT HAWKS - POWER IN LIVE
DYEAR=1997
DGENRE=Rock
TTITLE0=FIGHT YOUR SOUL
TTITLE1=NO SATISFACTION
TTITLE2=LONELY IN MY SOUL
TTITLE3=CRY FOR YOU
TTITLE4=何も言わずに
TTITLE5=KNOCK TO YOUR LOVE
TTITLE6=BREATH OF FIRE
TTITLE7=RUN UP
TTITLE8=SHOUT
TTITLE9=OUT OF THE DARK
EXTD=
EXTT0=
EXTT1=
EXTT2=
EXTT3=
EXTT4=
EXTT5=
EXTT6=
EXTT7=
EXTT8=
EXTT9=
PLAYORDER=
